<svg width="100" height="100" viewBox="0 0 100 100" fill="none" xmlns="http://www.w3.org/2000/svg">
<path d="M35 50V20C27.0435 20 19.4129 23.1607 13.7868 28.7868C8.16071 34.4129 5 42.0435 5 50C5 57.9565 8.16071 65.5871 13.7868 71.2132C19.4129 76.8393 27.0435 80 35 80L35 50Z" fill="#CC080B"/>
<path d="M65 52L61.5 54L58 52H65Z" fill="#FFE285"/>
<path d="M57 52V53.5033C57 54.4224 57.7451 55.1676 58.6643 55.1676H69.6571C70.5762 55.1676 71.3214 54.4224 71.3214 53.5033V52H57Z" fill="#F6A230"/>
<path d="M59.5622 49H71C71 46.2386 68.9232 44 66.3614 44H61.6386C59.0768 44 57 46.2386 57 49H58.8876" fill="#F6A230"/>
<path d="M58.3514 49H56.4539C56.2032 49 56 49.1381 56 49.3085C56 49.4789 56.2032 49.617 56.4539 49.617C57.6277 49.617 57.6277 50 58.8016 50C59.9754 50 59.9754 49.617 61.1493 49.617C62.3232 49.617 62.3232 50 63.4971 50C63.4981 50 63.499 50 63.5 50C63.501 50 63.5019 50 63.5029 50C64.6768 50 64.6768 49.617 65.8507 49.617C67.0246 49.617 67.0246 50 68.1984 50C69.3723 50 69.3723 49.617 70.5461 49.617C70.7968 49.617 71 49.4789 71 49.3085C71 49.1381 70.7968 49 70.5461 49H63.5H59.0304" fill="#08AA6E"/>
<path d="M71.1053 50.011C70.1478 50.0879 70.054 50.5533 68.9256 50.5533C67.6957 50.5533 67.6957 50 66.4657 50C65.2358 50 65.2358 50.5533 64.0058 50.5533C64.0048 50.5533 64.0038 50.5533 64.0027 50.5533C64.0017 50.5533 64.0007 50.5533 63.9997 50.5533C62.7697 50.5533 62.7697 50 61.5397 50C60.3098 50 60.3098 50.5533 59.0799 50.5533C57.9501 50.5533 57.8575 50.0867 56.8965 50.0107C56.3882 50.0877 56 50.5007 56 50.9988C56 51.5518 56.4783 52 57.0682 52H70.9318C71.5217 52 72 51.5518 72 50.9988C72 50.5012 71.6127 50.0887 71.1053 50.011Z" fill="#D53349"/>
<path d="M72 50.9414C72 50.5714 71.8438 50.2358 71.5889 50.002C71.7565 49.8742 71.865 49.6725 71.865 49.4459C71.865 49.1413 71.669 48.8817 71.3966 48.7862C71.2921 46.1293 69.0985 44 66.4165 44H61.5835C58.9009 44 56.7069 46.1303 56.6033 48.788C56.3336 48.885 56.1402 49.1432 56.1402 49.4459C56.1402 49.6711 56.2474 49.8717 56.4134 49.9996C56.1571 50.2335 56 50.57 56 50.9414C56 51.3973 56.2408 51.7977 56.6017 52.0229V53.4812C56.6017 54.5299 57.4548 55.3831 58.5036 55.3831H69.4964C70.5451 55.3831 71.3983 54.5299 71.3983 53.4812V52.0229C71.7592 51.7977 72 51.3972 72 50.9414ZM61.5835 44.4752H66.4165C68.8232 44.4752 70.7956 46.3704 70.9195 48.7468H59.4587L59.4587 49.2221H71.166C71.2894 49.2221 71.3897 49.3224 71.3897 49.4458C71.3897 49.5692 71.2894 49.6696 71.166 49.6696C71.0723 49.6696 70.9853 49.6732 70.9036 49.6794L70.9033 49.6793L70.8979 49.6798C70.4153 49.7178 70.1278 49.8556 69.8698 49.9794C69.5757 50.1206 69.3218 50.2424 68.7793 50.2424C68.7114 50.2424 68.6481 50.2405 68.5887 50.2369C68.1726 50.2117 67.946 50.1029 67.6888 49.9794C67.3862 49.8342 67.0433 49.6696 66.3925 49.6696C66.2705 49.6696 66.1593 49.6754 66.0572 49.6858C65.6145 49.7307 65.3421 49.8614 65.0962 49.9794C65.0251 50.0136 64.9562 50.0466 64.8851 50.077C64.6655 50.171 64.4235 50.2402 64.0228 50.2422C64.0172 50.2423 64.012 50.2424 64.0064 50.2424L64.0027 50.2424L63.9965 50.2424C63.9814 50.2424 63.9675 50.242 63.9529 50.2418C63.9347 50.2415 63.916 50.2415 63.8984 50.241C63.8935 50.2408 63.889 50.2405 63.8842 50.2403C63.67 50.2328 63.5036 50.2047 63.3602 50.1636C63.1925 50.1155 63.0558 50.0498 62.9091 49.9794C62.6066 49.8342 62.2637 49.6696 61.6128 49.6696C60.962 49.6696 60.6191 49.8342 60.3166 49.9794C60.0593 50.1029 59.8327 50.2117 59.4167 50.2369C59.3572 50.2406 59.2939 50.2424 59.2261 50.2424C58.6835 50.2424 58.4296 50.1206 58.1356 49.9794C57.877 49.8553 57.5888 49.7172 57.1043 49.6796L57.0984 49.6791L57.0982 49.6791C57.0176 49.673 56.9317 49.6696 56.8394 49.6696C56.716 49.6696 56.6156 49.5692 56.6156 49.4458C56.6156 49.3224 56.716 49.2221 56.8394 49.2221H58.7685L58.7685 48.7468H57.0805C57.2044 46.3704 59.1768 44.4752 61.5835 44.4752ZM63.5815 52.2155L61.198 53.5034L58.8144 52.2155H63.5815V52.2155ZM70.9231 52.2155V52.7757H65.8547V53.2509H70.9231V53.4812C70.9231 54.2678 70.2831 54.9078 69.4964 54.9078H58.5036C57.7169 54.9078 57.0769 54.2678 57.0769 53.4812V52.2155H57.2741H57.8147L61.198 54.0436L64.5812 52.2155H70.7259H70.9231ZM70.7259 51.7402H65.4607L65.4608 51.7402H57.2729C56.8329 51.7395 56.4753 51.3814 56.4753 50.9413C56.4753 50.5567 56.7438 50.2316 57.1178 50.1578C57.4809 50.193 57.699 50.2976 57.9295 50.4081C58.2131 50.5441 58.5322 50.697 59.1064 50.7158C59.1451 50.7171 59.1849 50.7177 59.226 50.7177C59.8768 50.7177 60.2197 50.5531 60.5222 50.4079C60.8162 50.2668 61.0701 50.1449 61.6128 50.1449C61.7484 50.1449 61.866 50.1525 61.9707 50.1661C62.0231 50.1729 62.0722 50.1813 62.1188 50.1909C62.142 50.1957 62.1647 50.2008 62.1867 50.2063C62.3853 50.2552 62.538 50.3285 62.7034 50.4079C62.9019 50.5032 63.1178 50.6068 63.4268 50.6668C63.4709 50.6754 63.5169 50.6831 63.5651 50.6897C63.5972 50.6942 63.6302 50.6981 63.6642 50.7016C63.7664 50.7119 63.8776 50.7177 63.9996 50.7177H64.0056C64.1479 50.7177 64.2756 50.7098 64.3913 50.696C64.788 50.6486 65.0444 50.5313 65.2734 50.4215C65.2829 50.417 65.2924 50.4124 65.3018 50.4079C65.5959 50.2668 65.8498 50.1449 66.3924 50.1449C66.5281 50.1449 66.6457 50.1525 66.7504 50.1661C66.8028 50.1729 66.8519 50.1813 66.8984 50.1909C66.9217 50.1957 66.9443 50.2008 66.9664 50.2063C67.1649 50.2552 67.3176 50.3285 67.483 50.4079C67.6816 50.5032 67.8975 50.6068 68.2064 50.6668C68.2505 50.6754 68.2965 50.6831 68.3447 50.6897C68.3768 50.6942 68.4098 50.6981 68.4438 50.7016C68.546 50.7119 68.6572 50.7177 68.7792 50.7177C68.8199 50.7177 68.8593 50.7171 68.8977 50.7158C69.4727 50.6972 69.7919 50.5441 70.0757 50.4081C70.3055 50.2979 70.5228 50.1937 70.8838 50.1582C71.2568 50.2325 71.5247 50.5574 71.5247 50.9413C71.5247 51.3818 71.1664 51.7402 70.7259 51.7402Z" fill="#53180F"/>
<path d="M62.0171 45.0354H61.275V45.5107H62.0171V45.0354Z" fill="#53180F"/>
<path d="M63.1942 46.0708H62.452V46.5461H63.1942V46.0708Z" fill="#53180F"/>
<path d="M60.8398 46.0708H60.0976V46.5461H60.8398V46.0708Z" fill="#53180F"/>
<path d="M67.9023 46.0708H67.1602V46.5461H67.9023V46.0708Z" fill="#53180F"/>
<path d="M65.5482 46.0708H64.8061V46.5461H65.5482V46.0708Z" fill="#53180F"/>
<path d="M64.3712 45.0354H63.629V45.5107H64.3712V45.0354Z" fill="#53180F"/>
<path d="M66.7252 45.0354H65.9831V45.5107H66.7252V45.0354Z" fill="#53180F"/>
<path d="M49.7538 48.3514H2C2 35.793 7.03119 23.749 15.9868 14.8689C24.9423 5.98879 37.0887 1 49.7538 1C62.4189 1 74.5652 5.98879 83.5208 14.8689C92.4764 23.749 97.5076 35.793 97.5076 48.3514H49.7538Z" fill="#CC080B"/>
<path d="M49.7538 48H2C2 60.5584 7.03119 72.6024 15.9868 81.4825C24.9423 90.3626 37.0887 95.3514 49.7538 95.3514C62.4189 95.3514 74.5652 90.3626 83.5208 81.4825C92.4764 72.6024 97.5076 60.5584 97.5076 48H49.7538Z" fill="#CC080B"/>
</svg>
